{"title":"Straight Outta Compton 2015 CAM XviD-VAiN","uid":12245243,"size":1716450333,"categoryP":"video","categoryS":"movies","magnet":"?xt=urn:btih:c6baa2bc59e89f6fcf070a6a3adf40095dfc53fc&amp;dn=Straight+Outta+Compton+2015+CAM+XviD-VAiN&amp;tr=udp%3A%2F%2Ftracker.openbittorrent.com%3A80&amp;tr=udp%3A%2F%2Fopen.demonii.com%3A1337&amp;tr=udp%3A%2F%2Ftracker.coppersurfer.tk%3A6969&amp;tr=udp%3A%2F%2Fexodus.desync.com%3A6969","seeders":22,"leechers":5,"uploader":"SS132203","files":5,"time":1439884340,"description":"Straight Outta Compton 2015 CAM XviD-VAiN\n &lt;a href=&quot;\nhttp://imgsparrow.co/image/8jT&quot; rel=&quot;nofollow&quot; target=&quot;_NEW&quot;&gt;\nhttp://imgsparrow.co/image/8jT&lt;/a&gt;\n &lt;a href=&quot;\nhttp://imgsparrow.co/image/8bn&quot; rel=&quot;nofollow&quot; target=&quot;_NEW&quot;&gt;\nhttp://imgsparrow.co/image/8bn&lt;/a&gt;\n &lt;a href=&quot;\nhttp://imgsparrow.co/image/9b&quot; rel=&quot;nofollow&quot; target=&quot;_NEW&quot;&gt;\nhttp://imgsparrow.co/image/9b&lt;/a&gt;\n\nInfo : - \n\nThank VAiN Not ME!\n\nP R E S E N T S . . . .\n\nStraight.Outta.Compton.2015.CAM.XviD-VAiN\niMDB........: http://www.imdb.com/title/tt1398426/\nPLOT........: The group NWA emerges from the mean streets of Compton in Los\nAngeles, California in the mid-1980s and revolutionizes Hip Hop culture\nwith their music and tales about life in the hood\nT E C H N i C A L . i N F O . . .\n\nBasic Information\nFormat                      : AVI\nFormat/Info                 : Audio Video Interleave\nFile size                   : 1.68 GiB\nDuration                    : 2h 21mn\nOverall bit rate            : 1 697 Kbps\nWriting application         : VirtualDubMod 1.5.10.2 (build 2540/release)\nWriting library             : VirtualDubMod build 2540/release\n\nVideo\nID                          : 0\nFormat                      : MPEG-4 Visual\nFormat profile              : Advanced Simple@L5\nFormat settings, BVOP       : 2\nFormat settings, QPel       : No\nFormat settings, GMC        : No warppoints\nFormat settings, Matrix     : Default (H.263)\nMuxing mode                 : Packed bitstream\nCodec ID                    : XVID\nCodec ID/Hint               : XviD\nDuration                    : 2h 21mn\nBit rate                    : 1 557 Kbps\nWidth                       : 720 pixels\nHeight                      : 272 pixels\nDisplay aspect ratio        : 2.647\nFrame rate                  : 29.970 fps\nColor space                 : YUV\nChroma subsampling          : 4:2:0\nBit depth                   : 8 bits\nScan type                   : Progressive\nCompression mode            : Lossy\nBits/(Pixel*Frame)          : 0.265\nStream size                 : 1.54 GiB (92%)\nWriting library             : XviD 67\n\nAudio\nID                          : 1\nFormat                      : MPEG Audio\nFormat version              : Version 1\nFormat profile              : Layer 3\nMode                        : Joint stereo\nMode extension              : MS Stereo\nCodec ID                    : 55\nCodec ID/Hint               : MP3\nDuration                    : 2h 21mn\nBit rate mode               : Constant\nBit rate                    : 128 Kbps\nChannel(s)                  : 2 channels\nSampling rate               : 44.1 KHz\nCompression mode            : Lossy\nDelay relative to video     : 4ms\nStream size                 : 130 MiB (8%)\nAlignment                   : Split accross interleaves\nInterleave, duration        : 33 ms (1.00 video frame)\nInterleave, preload duratio : 500 ms\n\nE N C O D E R S . N O T E S . . .      \n\nSOURCE......: ViDEO...Straight Outta Compton 2015 720\n............: AUDiO...Straight Outta Compton 2015 720\nSAMPLE......: Yippers\nADDED NOTE..: see it's a cam... got some nice spots and not so nice spots.\nsors have light, dark, hotspots. had perspec and AR issues. not for the fan\nof HDTSCAMBDBRiPDVDRiPSCRHQ encodes. this is for the true ol school pirates\nthat understand what they get when they watch a cam. work done was use\nusual filters, tried to kill that yellow tint, fix lvls without going to dark or light.\naudio isn't that bad but not that great. this will hold ova until a nice V2 with better audio or a webdl wit them chinky subs...\n\nIMHO V/5.5 A/5 M/10\n\nScreens : - \n &lt;a href=&quot;\nhttp://imgsparrow.co/image/8jb&quot; rel=&quot;nofollow&quot; target=&quot;_NEW&quot;&gt;\nhttp://imgsparrow.co/image/8jb&lt;/a&gt; &lt;a href=&quot;\nhttp://imgsparrow.co/image/8jh&quot; rel=&quot;nofollow&quot; target=&quot;_NEW&quot;&gt;\nhttp://imgsparrow.co/image/8jh&lt;/a&gt; &lt;a href=&quot;\nhttp://imgsparrow.co/image/8jj&quot; rel=&quot;nofollow&quot; target=&quot;_NEW&quot;&gt;\nhttp://imgsparrow.co/image/8jj&lt;/a&gt; &lt;a href=&quot;\nhttp://imgsparrow.co/image/8jr&quot; rel=&quot;nofollow&quot; target=&quot;_NEW&quot;&gt;\nhttp://imgsparrow.co/image/8jr&lt;/a&gt; &lt;a href=&quot;\nhttp://imgsparrow.co/image/8jD&quot; rel=&quot;nofollow&quot; target=&quot;_NEW&quot;&gt;\nhttp://imgsparrow.co/image/8jD&lt;/a&gt; &lt;a href=&quot;\nhttp://imgsparrow.co/image/8jG&quot; rel=&quot;nofollow&quot; target=&quot;_NEW&quot;&gt;\nhttp://imgsparrow.co/image/8jG&lt;/a&gt; &lt;a href=&quot;\nhttp://imgsparrow.co/image/8je&quot; rel=&quot;nofollow&quot; target=&quot;_NEW&quot;&gt;\nhttp://imgsparrow.co/image/8je&lt;/a&gt; &lt;a href=&quot;\nhttp://imgsparrow.co/image/8jg&quot; rel=&quot;nofollow&quot; target=&quot;_NEW&quot;&gt;\nhttp://imgsparrow.co/image/8jg&lt;/a&gt;\n &lt;a href=&quot;\nhttp://imgsparrow.co/image/N2&quot; rel=&quot;nofollow&quot; target=&quot;_NEW&quot;&gt;\nhttp://imgsparrow.co/image/N2&lt;/a&gt;","torrent":{"xt":"urn:btih:c6baa2bc59e89f6fcf070a6a3adf40095dfc53fc","amp;dn":"Straight+Outta+Compton+2015+CAM+XviD-VAiN","amp;tr":["udp%3A%2F%2Ftracker.openbittorrent.com%3A80","udp%3A%2F%2Fopen.demonii.com%3A1337","udp%3A%2F%2Ftracker.coppersurfer.tk%3A6969","udp%3A%2F%2Fexodus.desync.com%3A6969"],"infoHash":"c6baa2bc59e89f6fcf070a6a3adf40095dfc53fc","infoHashBuffer":{"type":"Buffer","data":[198,186,162,188,89,232,159,111,207,7,10,106,58,223,64,9,93,252,83,252]},"announce":[],"urlList":[]}}